<?xml version="1.0" standalone="no"?>
<!DOCTYPE svg PUBLIC "-//W3C//DTD SVG 20010904//EN"
 "http://www.w3.org/TR/2001/REC-SVG-20010904/DTD/svg10.dtd">
<svg version="1.0" xmlns="http://www.w3.org/2000/svg"
 width="300.000000pt" height="80.000000pt" viewBox="0 0 300.000000 80.000000"
 preserveAspectRatio="xMidYMid meet">

<g transform="translate(0.000000,80.000000) scale(0.100000,-0.100000)"
fill="#000000" stroke="none">
<path d="M0 400 l0 -400 1500 0 1500 0 0 400 0 400 -1500 0 -1500 0 0 -400z
m700 249 c0 -8 -168 -306 -260 -461 l-22 -38 246 0 246 0 -20 40 -20 39 -154
3 -155 3 92 162 c51 89 94 163 97 163 5 0 12 -11 79 -133 l43 -78 -38 3 c-33
3 -42 9 -60 42 l-22 38 -41 -70 c-22 -39 -41 -73 -41 -76 0 -3 55 -6 123 -6
l122 0 50 -91 c28 -51 51 -95 53 -100 2 -5 -155 -9 -358 -9 -199 0 -360 3
-358 8 2 4 84 148 182 320 l179 313 18 -31 c11 -17 19 -35 19 -41z m495 -149
c0 -10 -12 -16 -37 -18 -34 -3 -38 -6 -38 -32 0 -24 5 -29 27 -32 17 -2 29
-10 31 -20 3 -14 -3 -18 -27 -18 -29 0 -30 -1 -33 -52 -2 -39 -7 -53 -18 -53
-12 0 -16 20 -18 109 -1 61 0 116 3 123 7 21 110 14 110 -7z m145 0 c0 -16 -7
-20 -35 -20 -32 0 -35 -2 -35 -29 0 -25 4 -30 28 -33 16 -2 27 -9 27 -18 0 -9
-11 -16 -27 -18 -25 -3 -28 -8 -28 -38 0 -33 1 -34 41 -34 32 0 40 -3 37 -16
-2 -13 -15 -17 -56 -17 l-53 0 0 117 c0 64 0 118 1 121 0 3 23 5 50 5 43 0 50
-3 50 -20z m150 0 c0 -16 -7 -20 -35 -20 -32 0 -35 -2 -35 -30 0 -27 3 -30 30
-30 23 0 30 -4 30 -20 0 -16 -7 -20 -30 -20 -28 0 -30 -3 -30 -35 0 -34 1 -35
40 -35 31 0 40 -4 40 -17 0 -15 -9 -18 -55 -18 l-55 0 0 123 0 122 50 0 c43 0
50 -3 50 -20z m185 -2 c28 -13 55 -64 55 -105 0 -33 -31 -87 -57 -102 -10 -5
-43 -11 -73 -12 l-55 -3 -3 109 c-1 60 0 115 3 123 4 11 17 13 56 8 27 -4 61
-12 74 -18z m287 -5 c24 -21 24 -84 1 -105 -10 -9 -33 -19 -50 -23 -31 -6 -33
-9 -33 -49 0 -31 -4 -43 -15 -43 -13 0 -15 21 -15 125 l0 125 47 -7 c25 -3 55
-14 65 -23z m143 17 c65 -15 84 -63 45 -113 -21 -26 -21 -26 -1 -64 28 -55 28
-56 8 -59 -12 -2 -25 13 -43 47 -33 65 -59 65 -60 -1 -1 -25 -4 -44 -7 -42 -4
1 -11 2 -17 2 -6 0 -10 47 -10 120 0 135 -4 131 85 110z m155 -109 c0 -93 -3
-120 -14 -124 -8 -3 -17 -3 -20 0 -8 9 -8 228 1 236 3 4 12 7 20 7 10 0 13
-26 13 -119z m159 110 c8 -5 11 -16 8 -25 -5 -14 -11 -15 -27 -6 -26 14 -64
-5 -56 -27 3 -8 6 -16 6 -18 0 -2 18 -14 39 -26 52 -29 70 -69 47 -104 -9 -13
-28 -28 -43 -31 -33 -9 -77 6 -81 28 -3 13 5 16 45 15 41 -2 48 1 48 17 0 12
-18 32 -45 51 -37 26 -46 38 -48 67 -2 28 2 40 20 52 25 18 65 21 87 7z m147
-83 l41 -83 43 85 c24 47 44 81 46 75 21 -66 49 -227 41 -232 -16 -10 -34 23
-42 75 -4 26 -9 50 -12 55 -2 4 -18 -19 -35 -50 -16 -32 -33 -61 -37 -65 -4
-4 -22 22 -40 59 -38 73 -43 71 -56 -21 -8 -50 -14 -59 -33 -47 -9 5 -6 35 11
119 12 61 24 112 27 112 3 0 24 -37 46 -82z"/>
<path d="M1580 395 l0 -85 34 0 c25 0 40 7 55 26 45 57 12 144 -55 144 l-34 0
0 -85z"/>
<path d="M1880 440 c0 -39 2 -41 26 -38 35 4 53 31 38 56 -6 9 -23 18 -38 20
-24 3 -26 1 -26 -38z"/>
<path d="M2056 481 c-2 -3 -3 -24 -2 -46 1 -38 2 -40 31 -37 39 5 47 14 43 48
-2 23 -9 30 -36 35 -18 4 -34 4 -36 0z"/>
</g>
</svg>
