<?xml version="1.0" standalone="no"?>
<!DOCTYPE svg PUBLIC "-//W3C//DTD SVG 20010904//EN"
 "http://www.w3.org/TR/2001/REC-SVG-20010904/DTD/svg10.dtd">
<svg version="1.0" xmlns="http://www.w3.org/2000/svg"
 width="1024.000000pt" height="1024.000000pt" viewBox="0 0 1024.000000 1024.000000"
 preserveAspectRatio="xMidYMid meet">

<g transform="translate(0.000000,1024.000000) scale(0.100000,-0.100000)"
fill="#000000" stroke="none">
<path d="M0 5120 l0 -5120 5120 0 5120 0 0 5120 0 5120 -5120 0 -5120 0 0
-5120z m5173 3548 c14 -24 116 -205 227 -403 l202 -360 -17 -30 c-102 -175
-3136 -5489 -3149 -5514 -14 -26 -16 -39 -7 -57 l11 -24 2740 0 c2502 0 2740
1 2740 16 0 18 -31 74 -40 74 -4 0 -7 6 -7 13 0 8 -43 90 -95 183 -53 93 -152
268 -220 389 l-124 220 -1739 5 c-1467 4 -1740 7 -1737 19 2 7 487 861 1079
1897 843 1474 1080 1881 1089 1872 6 -7 125 -215 264 -463 373 -664 1058
-1884 1086 -1932 l25 -43 -414 0 -414 0 -198 353 c-251 444 -288 511 -295 517
-3 3 -13 23 -23 45 -18 38 -19 39 -33 20 -9 -11 -220 -379 -471 -818 -417
-730 -455 -800 -445 -822 l12 -25 925 0 c677 0 925 3 925 11 0 8 4 8 13 0 10
-7 141 -12 422 -13 l409 -3 169 -300 c93 -165 202 -358 242 -430 40 -71 131
-233 202 -360 332 -589 419 -745 535 -950 79 -140 121 -223 114 -227 -12 -9
-8130 -11 -8138 -3 -3 3 107 202 245 443 137 240 943 1650 1789 3132 847 1482
1559 2727 1582 2766 22 38 140 244 261 457 121 213 223 387 227 387 4 0 18
-19 31 -42z"/>
</g>
</svg>
