<?xml version="1.0" encoding="UTF-8"?>
<svg version="1.1" xmlns="http://www.w3.org/2000/svg" width="1024" height="1024">
<path d="M0 0 C337.92 0 675.84 0 1024 0 C1024 337.92 1024 675.84 1024 1024 C686.08 1024 348.16 1024 0 1024 C0 686.08 0 348.16 0 0 Z " fill="#000000" transform="translate(0,0)"/>
<path d="M0 0 C3.76581269 1.45703486 4.97383377 3.16647277 6.8125 6.70703125 C7.32449951 7.67560059 7.83649902 8.64416992 8.36401367 9.64208984 C8.90388916 10.6883252 9.44376465 11.73456055 10 12.8125 C11.16066661 15.01022165 12.32346884 17.2068166 13.48828125 19.40234375 C14.07432129 20.51077637 14.66036133 21.61920898 15.26416016 22.76123047 C17.81410826 27.51898175 20.48889547 32.2004114 23.1875 36.875 C27.34719413 44.09937395 31.45248942 51.34907932 35.46875 58.65429688 C37.40430101 62.16684601 39.37080764 65.65020403 41.43359375 69.08984375 C41.81418945 69.73058838 42.19478516 70.37133301 42.58691406 71.03149414 C43.6148305 72.75327698 44.65651524 74.46681921 45.69921875 76.1796875 C47.17942618 79.38902613 47.1240879 79.80843819 46 83 C45.07287898 84.86517008 44.09174147 86.70382368 43.078125 88.5234375 C42.47154053 89.61543457 41.86495605 90.70743164 41.23999023 91.83251953 C40.57694502 93.01350633 39.91360764 94.19432914 39.25 95.375 C38.56640676 96.5987504 37.88289535 97.82254652 37.19946289 99.04638672 C32.54035496 107.36611976 27.7394948 115.59474308 22.85107422 123.78198242 C18.74087816 130.68613168 14.78480363 137.66814495 10.875 144.6875 C3.93278648 157.1508285 -3.18469251 169.50144251 -10.40625 181.8046875 C-16.44599553 192.10593746 -22.39401198 202.43699415 -28.10424805 212.92480469 C-31.29267714 218.76410955 -34.62043128 224.50427621 -38.02270508 230.22094727 C-41.76968438 236.54539194 -45.35841049 242.95435959 -48.9375 249.375 C-53.45291376 257.47264604 -58.01395613 265.53775296 -62.67773438 273.55078125 C-66.80022711 280.63836644 -70.87253435 287.75432287 -74.9375 294.875 C-75.28162933 295.47779785 -75.62575867 296.0805957 -75.98031616 296.70166016 C-77.35255416 299.10554311 -78.72467466 301.50949302 -80.09651184 303.91360474 C-82.14002633 307.49458434 -84.18601279 311.0741351 -86.234375 314.65234375 C-90.82972469 322.68129322 -95.4093195 330.7183006 -99.95043945 338.77807617 C-104.62050656 347.06627079 -109.3345233 355.31978323 -114.1875 363.50219727 C-119.44955754 372.40419824 -124.48489421 381.43595481 -129.55908203 390.44580078 C-132.3148433 395.33071681 -135.10263561 400.19717358 -137.89111328 405.06347656 C-140.26387604 409.20719171 -142.63130451 413.35395902 -145 417.5 C-146.03644097 419.313812 -147.07289897 421.12761428 -148.109375 422.94140625 C-148.60373047 423.80652832 -149.09808594 424.67165039 -149.60742188 425.56298828 C-155.25 435.4375 -155.25 435.4375 -157.1640625 438.78515625 C-158.36944063 440.89585029 -159.57263761 443.00779174 -160.7734375 445.12109375 C-163.95363653 450.70992454 -167.15987262 456.28140077 -170.40625 461.83203125 C-171.01774902 462.87762207 -171.62924805 463.92321289 -172.25927734 465.00048828 C-173.47160549 467.07137701 -174.68539133 469.14141331 -175.90087891 471.21044922 C-179.21971138 476.87782117 -182.43553981 482.58670086 -185.56152344 488.36254883 C-187.83306016 492.52741834 -190.19767437 496.63761104 -192.5625 500.75 C-196.94916861 508.39862144 -201.29853992 516.06717828 -205.625 523.75 C-209.33322978 530.33017252 -213.07990674 536.88126539 -216.9375 543.375 C-221.69124676 551.37976559 -226.22221009 559.50454445 -230.75537109 567.63574219 C-234.73129358 574.75895529 -238.77441002 581.83781436 -242.87988281 588.88696289 C-246.53232811 595.16753417 -250.11773725 601.4846107 -253.6875 607.8125 C-254.23647949 608.78558105 -254.78545898 609.75866211 -255.35107422 610.76123047 C-256.41115487 612.6404498 -257.47121424 614.51968113 -258.53125 616.39892578 C-260.57603466 620.02012521 -262.62796055 623.6371739 -264.6875 627.25 C-265.28949219 628.30703125 -265.89148438 629.3640625 -266.51171875 630.453125 C-267.61370402 632.33893707 -268.78843284 634.18264926 -270 636 C-270.25030977 638.58380177 -270.25030977 638.58380177 -270 641 C-268.13496744 642.86503256 -265.45752353 642.13016425 -262.97485819 642.14176419 C-262.09830391 642.14074153 -261.22174962 642.13971886 -260.31863308 642.1386652 C-259.39225046 642.14150742 -258.46586783 642.14434964 -257.51141301 642.14727798 C-254.36611539 642.15568738 -251.2208543 642.15689804 -248.07554626 642.15821838 C-245.81429171 642.16277949 -243.553038 642.16777884 -241.2917853 642.17318195 C-235.04598406 642.18682387 -228.80018829 642.19419883 -222.55437601 642.20060861 C-216.52053251 642.20776804 -210.48669941 642.21959465 -204.45286353 642.23132664 C-192.1042154 642.25517431 -179.75556409 642.27436282 -167.40690422 642.29092598 C-155.17439271 642.30734847 -142.94188715 642.32582338 -130.70938301 642.34705925 C-129.94973372 642.34837686 -129.19008442 642.34969446 -128.40741545 642.351052 C-124.54977974 642.35775378 -120.6921441 642.36449242 -116.83450849 642.37124526 C-89.48757849 642.41905001 -62.14064294 642.46222302 -34.79370117 642.50268555 C-8.22110591 642.54201292 18.35148474 642.58342996 44.92407227 642.62768555 C45.74268338 642.62904808 46.56129449 642.63041061 47.404712 642.63181442 C55.62529561 642.64549941 63.84587914 642.65922699 72.06646262 642.67298577 C88.81379348 642.70101478 105.5611248 642.7287595 122.30845642 642.7563324 C123.07852706 642.7576006 123.8485977 642.7588688 124.64200381 642.76017542 C176.09466175 642.84487818 227.54733013 642.92293233 279 643 C278.52317521 641.71194273 278.0448001 640.42445931 277.56576538 639.13722229 C277.29953558 638.42019418 277.03330578 637.70316607 276.75900841 636.96440983 C275.96560642 634.91098506 275.06139351 633.00506953 273.9765625 631.08984375 C273.60168701 630.42138428 273.22681152 629.7529248 272.84057617 629.06420898 C272.43943604 628.36239502 272.0382959 627.66058105 271.625 626.9375 C271.19872314 626.18090088 270.77244629 625.42430176 270.33325195 624.64477539 C268.89417393 622.09346079 267.44695139 619.54685656 266 617 C264.87573492 615.0107371 263.75205715 613.02114218 262.62890625 611.03125 C260.41602476 607.11142227 258.19958098 603.19364677 255.98046875 599.27734375 C255.23289307 597.95259033 255.23289307 597.95259033 254.47021484 596.60107422 C253.48618691 594.860152 252.49687909 593.1222041 251.50244141 591.38720703 C251.04401855 590.58009277 250.5855957 589.77297852 250.11328125 588.94140625 C249.70505127 588.22799072 249.29682129 587.5145752 248.8762207 586.77954102 C248 585 248 585 248 583 C247.34 583 246.68 583 246 583 C245.50371094 581.98421875 245.00742187 580.9684375 244.49609375 579.921875 C240.68345761 572.17769377 236.7497041 564.63009556 232.25 557.2578125 C231 555 231 555 231 553 C115.83 553 0.66 553 -118 553 C-117.10360206 549.41440824 -116.11761713 547.15394339 -114.33203125 543.984375 C-113.77580078 542.99308594 -113.21957031 542.00179687 -112.64648438 540.98046875 C-112.04126953 539.91441406 -111.43605469 538.84835937 -110.8125 537.75 C-110.18537109 536.63753906 -109.55824219 535.52507813 -108.91210938 534.37890625 C-104.1092932 525.8864141 -99.20205145 517.45654788 -94.26416016 509.04199219 C-87.6748759 497.78875611 -81.34217923 486.39366936 -75 475 C-70.10688082 466.22090309 -65.13654352 457.50036441 -60.01513672 448.85229492 C-54.69014993 439.82923043 -49.58197728 430.68278375 -44.44091797 421.55419922 C-41.6851567 416.66928319 -38.89736439 411.80282642 -36.10888672 406.93652344 C-33.21422429 401.88137981 -30.32665912 396.82217152 -27.43701172 391.76416016 C-25.16922426 387.79499095 -22.90103731 383.82605965 -20.62890625 379.859375 C-17.04263338 373.59655811 -13.4793293 367.3230119 -10 361 C-9.34 361 -8.68 361 -8 361 C-7.89582764 360.28537598 -7.79165527 359.57075195 -7.68432617 358.83447266 C-6.92009936 355.66905228 -5.71885632 353.44118267 -4.05078125 350.6484375 C-3.44943359 349.63136719 -2.84808594 348.61429687 -2.22851562 347.56640625 C-1.59623047 346.51324219 -0.96394531 345.46007812 -0.3125 344.375 C3.81132465 337.44558696 7.86633028 330.5039085 11.69750977 323.40771484 C13.29541366 320.45391386 14.95144497 317.53652725 16.625 314.625 C17.30997157 313.43103303 17.99486197 312.23701949 18.6796875 311.04296875 C19.23221191 310.08076416 19.23221191 310.08076416 19.79589844 309.09912109 C22.11947103 305.04841608 24.43380382 300.99242566 26.75 296.9375 C27.79034773 295.11717787 28.8307125 293.29686547 29.87109375 291.4765625 C31.88558538 287.95135802 33.89859541 284.4253151 35.91015625 280.8984375 C41.39168484 271.2911864 46.90186307 261.701186 52.4375 252.125 C57.22806884 243.83508462 61.98393166 235.52709477 66.6875 227.1875 C67.48401978 225.77537231 67.48401978 225.77537231 68.29663086 224.3347168 C69.08372437 222.93926636 69.08372437 222.93926636 69.88671875 221.515625 C74.88548127 212.65453615 79.91882222 203.81409512 85 195 C85.57911133 193.99259766 86.15822266 192.98519531 86.75488281 191.94726562 C88.53643393 188.85566589 90.32906903 185.77076427 92.125 182.6875 C92.681875 181.7193335 93.23875 180.75116699 93.8125 179.75366211 C94.58980469 178.42733765 94.58980469 178.42733765 95.3828125 177.07421875 C96.06947998 175.89218872 96.06947998 175.89218872 96.77001953 174.6862793 C97.17591309 174.12980713 97.58180664 173.57333496 98 173 C98.66 173 99.32 173 100 173 C101.6086564 175.89558152 103.21730651 178.79116652 104.82592773 181.68676758 C106.20029425 184.16064386 107.57482197 186.63443048 108.94946289 189.1081543 C111.94936496 194.50686857 114.94899699 199.90572092 117.94140625 205.30859375 C121.63509415 211.97548975 125.34102746 218.63383465 129.125 225.25 C129.75664063 226.35472656 130.38828125 227.45945312 131.0390625 228.59765625 C132.44025296 231.02880543 133.85121301 233.45234871 135.2734375 235.87109375 C135.64581543 236.50950195 136.01819336 237.14791016 136.40185547 237.80566406 C137.11681164 239.03084907 137.83693823 240.2530362 138.56298828 241.47167969 C140.16353259 244.22400248 141 245.7542992 141 249 C141.66 249 142.32 249 143 249 C143.58265625 250.12792969 144.1653125 251.25585938 144.765625 252.41796875 C150.77195218 263.97452503 157.10828869 275.3069341 163.61425781 286.58837891 C165.57744339 290.00493055 167.51083141 293.43775922 169.4375 296.875 C173.00637103 303.23739627 176.59432011 309.58880096 180.1875 315.9375 C184.83643195 324.1533909 189.45738915 332.38447599 194.0625 340.625 C198.90445363 349.28821086 203.7988351 357.91922641 208.73583984 366.52856445 C212.7569362 373.55030785 216.69518848 380.61572418 220.61328125 387.6953125 C223.01630829 392.03594649 225.44177527 396.36373401 227.875 400.6875 C228.23231201 401.32276611 228.58962402 401.95803223 228.95776367 402.61254883 C229.29912354 403.2186499 229.6404834 403.82475098 229.9921875 404.44921875 C230.48477051 405.32779541 230.48477051 405.32779541 230.98730469 406.22412109 C231.69184 407.45960564 232.41252658 408.68596171 233.14550781 409.90478516 C236 414.69025735 236 414.69025735 236 418 C208.94 418 181.88 418 154 418 C149.71 410.41 145.42 402.82 141 395 C138.37206236 390.35808968 138.37206236 390.35808968 135.74389648 385.71630859 C131.04355995 377.412354 126.37077291 369.09473855 121.75952148 360.7409668 C119.44913934 356.56790701 117.09867206 352.42066444 114.71484375 348.2890625 C113.88255249 346.84490967 113.88255249 346.84490967 113.03344727 345.37158203 C111.94533088 343.48752124 110.8534922 341.60560429 109.75756836 339.72607422 C109.26780518 338.87803223 108.77804199 338.02999023 108.2734375 337.15625 C107.83435059 336.40150391 107.39526367 335.64675781 106.94287109 334.86914062 C106 333 106 333 106 331 C105.34 331 104.68 331 104 331 C103.01 328.69 102.02 326.38 101 324 C98.49249275 326.28708222 96.93039725 328.62585106 95.28515625 331.5859375 C94.77033691 332.50544189 94.25551758 333.42494629 93.72509766 334.37231445 C93.17644043 335.36320068 92.6277832 336.35408691 92.0625 337.375 C90.88456081 339.48071843 89.70616616 341.58618214 88.52734375 343.69140625 C87.93421387 344.75375488 87.34108398 345.81610352 86.72998047 346.91064453 C84.22025494 351.39244905 81.67646899 355.8543626 79.125 360.3125 C78.64160156 361.158125 78.15820312 362.00375 77.66015625 362.875 C73.64758136 369.88655665 69.60497192 376.88065296 65.5625 383.875 C59.09393679 395.06826859 52.71761884 406.3115577 46.36914062 417.57324219 C41.76107064 425.74089833 37.0867702 433.86594639 32.3125 441.9375 C26.55527278 451.67648815 20.97003552 461.51582485 15.47021484 471.40234375 C14.51004399 473.0988263 13.52169985 474.77975245 12.50244141 476.44140625 C12.04401855 477.20324219 11.5855957 477.96507812 11.11328125 478.75 C10.70505127 479.40484375 10.29682129 480.0596875 9.8762207 480.734375 C8.57917247 483.68326464 8.57917247 483.68326464 9 490 C70.05 490.33 131.1 490.66 194 491 C194 490.34 194 489.68 194 489 C194.66 489 195.32 489 196 489 C196 489.66 196 490.32 196 491 C197.0184198 490.98889694 198.0368396 490.97779388 199.08612061 490.96635437 C208.67970153 490.86503411 218.27317404 490.79006149 227.86716843 490.74093914 C232.79969313 490.7148357 237.73178622 490.67942403 242.6640625 490.62280273 C247.42327368 490.56850956 252.18206952 490.5385851 256.94156647 490.52561378 C258.75811554 490.51636904 260.57464166 490.49831605 262.3910141 490.47134972 C264.93402879 490.4350941 267.47532349 490.43005302 270.01855469 490.43237305 C270.77093414 490.41439667 271.5233136 490.39642029 272.29849243 490.37789917 C276.10208496 490.41549061 277.65326431 490.65721354 280.40475464 493.37736511 C281.96857237 495.94833197 283.4915092 498.50357242 284.8984375 501.1640625 C285.66945801 502.60894043 285.66945801 502.60894043 286.45605469 504.08300781 C286.96555664 505.04561523 287.47505859 506.00822266 288 507 C288.92763833 508.71725435 289.85726843 510.43343453 290.7890625 512.1484375 C291.47959717 513.42219238 291.47959717 513.42219238 292.18408203 514.72167969 C297.22745713 524.00859948 302.37585793 533.22597367 307.64135742 542.38867188 C310.78413209 547.86043498 313.88404718 553.35291661 316.9375 558.875 C320.67102044 565.62555981 324.4485671 572.3499474 328.25 579.0625 C332.85575183 587.19590245 337.43779857 595.34209014 342 603.5 C355.16930576 627.07577909 355.16930576 627.07577909 368.75048828 650.41503906 C371.2867457 654.70619757 373.57112384 659.05659696 375.73046875 663.55078125 C377.85908367 667.65737065 380.36184901 671.53087924 382.83984375 675.43359375 C385.77335449 680.16813713 388.3549619 685.10090859 391 690 C392.11901019 692.04990596 393.23881379 694.09937898 394.359375 696.1484375 C395.4897627 698.22386065 396.61997016 700.29938198 397.75 702.375 C398.32621094 703.42816406 398.90242187 704.48132813 399.49609375 705.56640625 C400.04910156 706.58347656 400.60210938 707.60054687 401.171875 708.6484375 C401.6678418 709.55770996 402.16380859 710.46698242 402.67480469 711.40380859 C403.93143434 713.86567295 404.97346286 716.43365714 406 719 C136.72 719 -132.56 719 -410 719 C-408.49779634 715.24449086 -406.98153813 711.99922616 -405.0234375 708.5 C-404.43884766 707.45408691 -403.85425781 706.40817383 -403.25195312 705.33056641 C-402.63255859 704.23147949 -402.01316406 703.13239258 -401.375 702 C-400.74271484 700.87384277 -400.11042969 699.74768555 -399.45898438 698.58740234 C-395.72960048 691.97491782 -391.93880978 685.43276432 -387.84375 679.0390625 C-385.64018993 675.40692323 -383.62865399 671.68786279 -381.60595703 667.95263672 C-379.01584933 663.19058708 -376.35401983 658.46957527 -373.6875 653.75 C-372.84046509 652.25001465 -372.84046509 652.25001465 -371.97631836 650.71972656 C-368.12597345 643.92596556 -364.1806872 637.20310836 -360.09765625 630.546875 C-357.79473325 626.72661878 -355.69350719 622.79908527 -353.56860352 618.87792969 C-351.0766695 614.30595798 -348.50652893 609.77896417 -345.9375 605.25 C-344.78897937 603.22270334 -343.64054427 601.19535823 -342.4921875 599.16796875 C-341.91178711 598.14364746 -341.33138672 597.11932617 -340.73339844 596.06396484 C-339.07045274 593.12453267 -337.41303167 590.18206989 -335.7578125 587.23828125 C-327.04678335 571.756443 -318.14319205 556.39105586 -309.10546875 541.09765625 C-308.43970825 539.97012939 -308.43970825 539.97012939 -307.76049805 538.81982422 C-306.96568422 537.47527571 -306.16920073 536.13171148 -305.37036133 534.78955078 C-302.65410724 530.19974507 -300.09660379 525.53249531 -297.55322266 520.8449707 C-295.06391035 516.2854051 -292.50049177 511.76843601 -289.9375 507.25 C-288.79290909 505.22920046 -287.64837962 503.20836611 -286.50390625 501.1875 C-285.92398926 500.16398437 -285.34407227 499.14046875 -284.74658203 498.0859375 C-283.04524892 495.07994777 -281.34800698 492.07169112 -279.65234375 489.0625 C-274.20902039 479.40595546 -268.73065378 469.77309449 -263.15698242 460.19116211 C-259.61627907 454.09324871 -256.14556711 447.95758222 -252.6875 441.8125 C-248.13625792 433.72661631 -243.50512707 425.69211977 -238.8125 417.6875 C-234.31381324 410.01254602 -229.90366561 402.30025708 -225.61206055 394.5078125 C-222.23617068 388.3896592 -218.74909509 382.34033101 -215.23657227 376.29980469 C-211.880735 370.52755401 -208.55672718 364.73801395 -205.25 358.9375 C-201.36481911 352.12254184 -197.45500807 345.32249612 -193.52514648 338.53320312 C-187.23176789 327.65907292 -181.03393808 316.73781476 -174.91845703 305.76269531 C-171.30749025 299.29556764 -167.61184363 292.88978537 -163.82470703 286.5246582 C-160.12949489 280.28477158 -156.59397197 273.95866981 -153.0625 267.625 C-148.02450743 258.58939623 -142.90916018 249.60593565 -137.70703125 240.6640625 C-134.80020254 235.6654633 -131.92899698 230.64681009 -129.0625 225.625 C-128.56564697 224.75504395 -128.06879395 223.88508789 -127.55688477 222.98876953 C-124.99731543 218.50528138 -122.44201758 214.01939604 -119.890625 209.53125 C-114.74608303 200.49114879 -109.55946921 191.4913673 -104.1328125 182.6171875 C-101.82392135 178.77200857 -99.70757671 174.82492083 -97.57080078 170.88232422 C-95.05607504 166.26795492 -92.46573357 161.69700016 -89.875 157.125 C-89.31659424 156.13830322 -88.75818848 155.15160645 -88.18286133 154.13500977 C-82.9120537 144.82926194 -77.60827937 135.54245223 -72.29443359 126.26123047 C-70.52783174 123.17517495 -68.76384247 120.08763352 -67 117 C-53.99479167 94.24088542 -40.98958333 71.48177083 -27.984375 48.72265625 C-27.49122803 47.85962891 -26.99808105 46.99660156 -26.48999023 46.10742188 C-25.49738458 44.37040263 -24.5047089 42.63342341 -23.51196289 40.89648438 C-20.94772296 36.40979858 -18.38484993 31.92234024 -15.82421875 27.43359375 C-10.59180073 18.26393469 -5.35130917 9.10099411 0 0 Z " fill="#FCF9FA" transform="translate(513,153)"/>
</svg>
