<?xml version="1.0" standalone="no"?>
<!DOCTYPE svg PUBLIC "-//W3C//DTD SVG 20010904//EN"
 "http://www.w3.org/TR/2001/REC-SVG-20010904/DTD/svg10.dtd">
<svg version="1.0" xmlns="http://www.w3.org/2000/svg"
 width="250.000000pt" height="50.000000pt" viewBox="0 0 250.000000 50.000000"
 preserveAspectRatio="xMidYMid meet">

<g transform="translate(0.000000,50.000000) scale(0.100000,-0.100000)"
fill="#000000" stroke="none">
<path d="M0 250 l0 -250 1250 0 1250 0 0 250 0 250 -1250 0 -1250 0 0 -250z
m726 150 c-2 -3 -37 -66 -79 -140 -42 -75 -79 -144 -83 -153 -6 -16 6 -17 140
-17 117 0 146 3 146 14 0 26 -27 35 -118 38 l-91 3 58 103 c65 116 59 115 110
15 l21 -43 -24 0 c-16 0 -27 7 -31 20 -10 30 -22 24 -45 -20 l-20 -40 72 0 73
0 34 -61 c18 -33 31 -62 28 -65 -2 -2 -101 -3 -220 -2 l-216 3 111 198 c104
183 113 196 124 175 7 -13 11 -25 10 -28z m344 -80 c0 -5 -11 -10 -25 -10 -20
0 -25 -5 -25 -25 0 -18 5 -25 20 -25 11 0 20 -4 20 -10 0 -5 -9 -10 -20 -10
-16 0 -20 -7 -20 -35 0 -19 -4 -35 -10 -35 -6 0 -10 33 -10 80 l0 80 35 0 c19
0 35 -4 35 -10z m100 0 c0 -5 -11 -10 -25 -10 -18 0 -25 -5 -25 -20 0 -13 7
-20 20 -20 11 0 20 -7 20 -15 0 -8 -9 -15 -20 -15 -15 0 -20 -7 -20 -25 0 -21
5 -25 30 -25 17 0 30 -4 30 -10 0 -5 -18 -10 -40 -10 l-40 0 0 80 0 80 35 0
c19 0 35 -4 35 -10z m100 0 c0 -5 -9 -10 -20 -10 -13 0 -20 -7 -20 -20 0 -11
7 -20 15 -20 8 0 15 -7 15 -15 0 -8 -7 -15 -15 -15 -9 0 -15 -9 -15 -25 0 -20
5 -25 25 -25 14 0 25 -4 25 -10 0 -5 -18 -10 -40 -10 l-40 0 0 80 0 80 35 0
c19 0 35 -4 35 -10z m140 -12 c49 -53 6 -142 -68 -136 l-37 3 -3 78 -3 77 45
0 c34 0 50 -6 66 -22z m179 8 c7 -8 11 -27 9 -43 -2 -22 -10 -30 -35 -38 -27
-7 -33 -14 -33 -37 0 -15 -4 -28 -10 -28 -6 0 -10 33 -10 80 l0 80 34 0 c18 0
39 -6 45 -14z m125 -2 c20 -20 20 -43 0 -65 -14 -16 -14 -20 2 -43 9 -15 14
-29 11 -33 -9 -8 -35 15 -42 38 -10 31 -35 23 -35 -11 0 -16 -4 -30 -10 -30
-6 0 -10 33 -10 80 l0 80 34 0 c19 0 42 -7 50 -16z m76 -64 c0 -64 -3 -80 -15
-80 -12 0 -15 16 -15 80 0 64 3 80 15 80 12 0 15 -16 15 -80z m112 65 c-2 -5
-14 -9 -27 -7 -20 3 -25 -1 -25 -17 0 -12 5 -21 10 -21 22 0 59 -48 53 -69 -8
-33 -81 -43 -90 -14 -3 9 4 11 25 7 47 -10 51 14 9 49 -38 30 -46 54 -25 75
15 15 74 12 70 -3z m146 -47 c15 28 29 52 33 52 3 0 13 -34 21 -75 12 -59 12
-75 3 -75 -7 0 -17 21 -22 48 l-9 47 -25 -48 -25 -48 -26 48 -27 48 -7 -43
c-6 -39 -19 -60 -30 -50 -2 3 4 39 13 82 l17 78 29 -59 30 -58 25 53z"/>
<path d="M1330 250 c0 -51 3 -60 18 -60 31 0 55 25 55 58 0 39 -18 62 -49 62
-23 0 -24 -3 -24 -60z"/>
<path d="M1530 286 c0 -32 18 -43 37 -23 20 20 10 47 -17 47 -15 0 -20 -7 -20
-24z"/>
<path d="M1650 280 c0 -27 3 -31 23 -28 16 2 22 10 22 28 0 18 -6 26 -22 28
-20 3 -23 -1 -23 -28z"/>
</g>
</svg>
