<?xml version="1.0" standalone="no"?>
<!DOCTYPE svg PUBLIC "-//W3C//DTD SVG 20010904//EN"
 "http://www.w3.org/TR/2001/REC-SVG-20010904/DTD/svg10.dtd">
<svg version="1.0" xmlns="http://www.w3.org/2000/svg"
 width="40.000000pt" height="40.000000pt" viewBox="0 0 40.000000 40.000000"
 preserveAspectRatio="xMidYMid meet">

<g transform="translate(0.000000,40.000000) scale(0.100000,-0.100000)"
fill="#000000" stroke="none">
<path d="M0 200 l0 -200 200 0 200 0 0 200 0 200 -200 0 -200 0 0 -200z m214
144 c3 -9 -23 -66 -64 -139 -39 -67 -70 -126 -70 -129 0 -3 54 -6 121 -6 109
0 120 2 117 17 -3 15 -17 18 -87 21 -69 2 -82 5 -77 18 8 21 86 154 90 154 5
0 56 -87 56 -94 0 -14 -31 -4 -42 14 -12 18 -13 18 -30 -8 -30 -45 -24 -52 41
-52 l59 0 26 -46 c14 -26 26 -48 26 -50 0 -2 -81 -4 -181 -4 -105 0 -179 4
-177 9 9 26 174 311 179 311 4 0 10 -7 13 -16z"/>
</g>
</svg>
