<?xml version="1.0" standalone="no"?>
<!DOCTYPE svg PUBLIC "-//W3C//DTD SVG 20010904//EN"
 "http://www.w3.org/TR/2001/REC-SVG-20010904/DTD/svg10.dtd">
<svg version="1.0" xmlns="http://www.w3.org/2000/svg"
 width="256.000000pt" height="256.000000pt" viewBox="0 0 256.000000 256.000000"
 preserveAspectRatio="xMidYMid meet">

<g transform="translate(0.000000,256.000000) scale(0.100000,-0.100000)"
fill="#000000" stroke="none">
<path d="M0 1280 l0 -1280 1280 0 1280 0 0 1280 0 1280 -1280 0 -1280 0 0
-1280z m1349 799 c28 -51 51 -95 51 -100 0 -4 -170 -304 -377 -666 -451 -787
-419 -730 -412 -737 3 -4 314 -5 692 -4 l686 3 -62 110 -62 110 -436 5 -435 5
266 465 c146 256 270 464 275 462 8 -2 345 -587 345 -599 0 -1 -46 -3 -103 -3
l-102 0 -57 103 c-31 56 -63 110 -70 119 -11 16 -27 -6 -129 -187 -65 -112
-114 -206 -111 -209 3 -3 156 -6 341 -6 l336 0 158 -279 c86 -154 157 -282
157 -285 0 -3 -459 -6 -1020 -6 -561 0 -1020 1 -1020 3 0 2 115 203 255 447
140 245 371 648 512 896 142 249 261 450 265 448 3 -2 29 -45 57 -95z"/>
</g>
</svg>
